<svg xmlns="http://www.w3.org/2000/svg" width="1024" height="1024" viewBox="0 0 1024 1024">
  <defs>
    <linearGradient id="bgA" x1="0" y1="0" x2="1" y2="1">
      <stop offset="0%" stop-color="#8EE3D6"/>
      <stop offset="100%" stop-color="#4A7BFF"/>
    </linearGradient>
    <radialGradient id="glowA" cx="0.18" cy="0.12" r="0.75">
      <stop offset="0%" stop-color="#FFFFFF" stop-opacity="0.45"/>
      <stop offset="100%" stop-color="#FFFFFF" stop-opacity="0"/>
    </radialGradient>
    <filter id="shadowA" x="-20%" y="-20%" width="140%" height="140%">
      <feDropShadow dx="0" dy="24" stdDeviation="26" flood-color="#2957A6" flood-opacity="0.20"/>
    </filter>
  </defs>
  <rect width="1024" height="1024" rx="230" fill="url(#bgA)"/>
  <circle cx="220" cy="170" r="340" fill="url(#glowA)"/>
  <g filter="url(#shadowA)">
    <rect x="254" y="220" width="516" height="584" rx="150" fill="#FFFFFF"/>
    <rect x="332" y="305" width="260" height="28" rx="14" fill="#D8ECFF"/>
    <rect x="332" y="365" width="212" height="28" rx="14" fill="#D8ECFF"/>
    <rect x="332" y="425" width="236" height="28" rx="14" fill="#D8ECFF"/>
    <circle cx="418" cy="548" r="24" fill="#243B6B"/>
    <circle cx="606" cy="548" r="24" fill="#243B6B"/>
    <ellipse cx="418" cy="588" rx="18" ry="11" fill="#FFB3C7"/>
    <ellipse cx="606" cy="588" rx="18" ry="11" fill="#FFB3C7"/>
    <path d="M438 642 Q512 700 586 642" fill="none" stroke="#243B6B" stroke-width="24" stroke-linecap="round"/>
    <rect x="334" y="678" width="120" height="64" rx="32" fill="#EEF7FF"/>
    <rect x="472" y="678" width="218" height="64" rx="32" fill="#EEF7FF"/>
    <circle cx="512" cy="222" r="42" fill="#FFD15C"/>
    <circle cx="512" cy="222" r="16" fill="#FFFFFF" opacity="0.92"/>
  </g>
  <g transform="translate(692 258)">
    <circle cx="76" cy="76" r="76" fill="#FF7F8A"/>
    <circle cx="76" cy="76" r="26" fill="#FFFFFF"/>
    <circle cx="76" cy="76" r="10" fill="#FF7F8A"/>
  </g>
  <g fill="#FFFFFF" opacity="0.95">
    <path d="M214 694 l28 -68 l28 68 l68 28 l-68 28 l-28 68 l-28 -68 l-68 -28 z" transform="scale(.55) translate(150 690)"/>
    <circle cx="760" cy="742" r="14"/>
    <circle cx="810" cy="690" r="10"/>
  </g>
</svg>
