<svg xmlns="http://www.w3.org/2000/svg" width="1024" height="1024" viewBox="0 0 1024 1024">
  <defs>
    <linearGradient id="bgA" x1="0" y1="0" x2="1" y2="1">
      <stop offset="0%" stop-color="#10B7A5"/>
      <stop offset="100%" stop-color="#2563EB"/>
    </linearGradient>
    <radialGradient id="glowA" cx="0.22" cy="0.16" r="0.62">
      <stop offset="0%" stop-color="#FFFFFF" stop-opacity="0.38"/>
      <stop offset="100%" stop-color="#FFFFFF" stop-opacity="0"/>
    </radialGradient>
    <filter id="shadowA" x="-20%" y="-20%" width="140%" height="140%">
      <feDropShadow dx="0" dy="26" stdDeviation="28" flood-color="#0B3C8A" flood-opacity="0.22"/>
    </filter>
  </defs>
  <rect width="1024" height="1024" rx="232" fill="url(#bgA)"/>
  <circle cx="240" cy="180" r="320" fill="url(#glowA)"/>
  <g filter="url(#shadowA)" transform="rotate(-8 505 510)">
    <rect x="300" y="248" width="424" height="536" rx="108" fill="#FFFFFF"/>
    <circle cx="410" cy="286" r="34" fill="#FFB020"/>
    <rect x="384" y="350" width="208" height="30" rx="15" fill="#D8E8FF"/>
    <rect x="384" y="418" width="264" height="30" rx="15" fill="#D8E8FF"/>
    <rect x="384" y="486" width="222" height="30" rx="15" fill="#D8E8FF"/>
    <rect x="384" y="554" width="170" height="30" rx="15" fill="#D8E8FF"/>
    <rect x="384" y="628" width="120" height="92" rx="36" fill="#EEF5FF"/>
    <rect x="526" y="628" width="160" height="92" rx="36" fill="#EEF5FF"/>
  </g>
  <g fill="none" stroke="#FFFFFF" stroke-linecap="round" stroke-width="38" opacity="0.96">
    <path d="M704 376 Q824 512 704 648"/>
    <path d="M786 314 Q950 512 786 710"/>
  </g>
  <circle cx="786" cy="228" r="20" fill="#FFB020"/>
</svg>
