<svg xmlns="http://www.w3.org/2000/svg" width="1024" height="1024" viewBox="0 0 1024 1024">
  <defs>
    <linearGradient id="bgB" x1="0" y1="0" x2="1" y2="1">
      <stop offset="0%" stop-color="#9ED9FF"/>
      <stop offset="100%" stop-color="#8A7BFF"/>
    </linearGradient>
    <radialGradient id="lightB" cx="0.18" cy="0.14" r="0.72">
      <stop offset="0%" stop-color="#FFFFFF" stop-opacity="0.44"/>
      <stop offset="100%" stop-color="#FFFFFF" stop-opacity="0"/>
    </radialGradient>
    <filter id="shadowB1" x="-20%" y="-20%" width="140%" height="140%">
      <feDropShadow dx="0" dy="24" stdDeviation="24" flood-color="#4A48A7" flood-opacity="0.18"/>
    </filter>
    <filter id="shadowB2" x="-20%" y="-20%" width="140%" height="140%">
      <feDropShadow dx="0" dy="18" stdDeviation="20" flood-color="#4A48A7" flood-opacity="0.12"/>
    </filter>
  </defs>
  <rect width="1024" height="1024" rx="230" fill="url(#bgB)"/>
  <circle cx="214" cy="170" r="338" fill="url(#lightB)"/>
  <g transform="rotate(-8 462 470)" filter="url(#shadowB2)">
    <rect x="248" y="246" width="414" height="522" rx="126" fill="#CFE4FF" opacity="0.9"/>
  </g>
  <g transform="rotate(6 560 508)" filter="url(#shadowB1)">
    <rect x="360" y="214" width="418" height="548" rx="136" fill="#FFFFFF"/>
    <rect x="430" y="300" width="190" height="56" rx="28" fill="#EEF3FF"/>
    <rect x="430" y="402" width="282" height="34" rx="17" fill="#DDE6FF"/>
    <rect x="430" y="470" width="244" height="34" rx="17" fill="#DDE6FF"/>
    <rect x="430" y="538" width="266" height="34" rx="17" fill="#DDE6FF"/>
    <rect x="430" y="628" width="108" height="68" rx="34" fill="#EEF3FF"/>
    <rect x="556" y="628" width="132" height="68" rx="34" fill="#EEF3FF"/>
  </g>
  <g>
    <circle cx="718" cy="282" r="58" fill="#FF8E7B"/>
    <circle cx="718" cy="282" r="20" fill="#FFFFFF"/>
    <circle cx="718" cy="282" r="8" fill="#FF8E7B"/>
  </g>
  <g fill="#FFFFFF" opacity="0.96">
    <circle cx="202" cy="758" r="16"/>
    <path d="M816 720 l16 -38 l16 38 l38 16 l-38 16 l-16 38 l-16 -38 l-38 -16 z"/>
  </g>
</svg>
