<svg xmlns="http://www.w3.org/2000/svg" width="1024" height="1024" viewBox="0 0 1024 1024">
  <defs>
    <linearGradient id="bgA" x1="0" y1="0" x2="1" y2="1">
      <stop offset="0%" stop-color="#8FDCD2"/>
      <stop offset="100%" stop-color="#6C8DFF"/>
    </linearGradient>
    <radialGradient id="lightA" cx="0.18" cy="0.14" r="0.7">
      <stop offset="0%" stop-color="#FFFFFF" stop-opacity="0.42"/>
      <stop offset="100%" stop-color="#FFFFFF" stop-opacity="0"/>
    </radialGradient>
    <filter id="shadowA" x="-20%" y="-20%" width="140%" height="140%">
      <feDropShadow dx="0" dy="28" stdDeviation="28" flood-color="#3553A5" flood-opacity="0.18"/>
    </filter>
  </defs>
  <rect width="1024" height="1024" rx="230" fill="url(#bgA)"/>
  <circle cx="206" cy="166" r="340" fill="url(#lightA)"/>
  <g filter="url(#shadowA)">
    <rect x="268" y="210" width="488" height="604" rx="154" fill="#FFFFFF"/>
    <rect x="336" y="280" width="188" height="58" rx="29" fill="#EAF6FF"/>
    <rect x="336" y="388" width="352" height="34" rx="17" fill="#D9EAFF"/>
    <rect x="336" y="458" width="298" height="34" rx="17" fill="#D9EAFF"/>
    <rect x="336" y="528" width="324" height="34" rx="17" fill="#D9EAFF"/>
    <rect x="336" y="626" width="126" height="74" rx="37" fill="#EDF7FF"/>
    <rect x="484" y="626" width="182" height="74" rx="37" fill="#EDF7FF"/>
    <circle cx="646" cy="300" r="54" fill="#FFB95C"/>
    <path d="M646 270 V300" stroke="#FFFFFF" stroke-width="18" stroke-linecap="round"/>
    <circle cx="646" cy="332" r="10" fill="#FFFFFF"/>
  </g>
  <g fill="#FFFFFF" opacity="0.96">
    <path d="M174 726 l20 -48 l20 48 l48 20 l-48 20 l-20 48 l-20 -48 l-48 -20 z"/>
    <circle cx="792" cy="760" r="14"/>
    <circle cx="832" cy="712" r="10"/>
  </g>
</svg>
