<svg xmlns="http://www.w3.org/2000/svg" width="1024" height="1024" viewBox="0 0 1024 1024">
  <defs>
    <linearGradient id="bgB" x1="0" y1="0" x2="1" y2="1">
      <stop offset="0%" stop-color="#FFB9D2"/>
      <stop offset="100%" stop-color="#8C9EFF"/>
    </linearGradient>
    <radialGradient id="glowB" cx="0.2" cy="0.14" r="0.72">
      <stop offset="0%" stop-color="#FFF6FB" stop-opacity="0.5"/>
      <stop offset="100%" stop-color="#FFF6FB" stop-opacity="0"/>
    </radialGradient>
    <filter id="shadowB" x="-20%" y="-20%" width="140%" height="140%">
      <feDropShadow dx="0" dy="22" stdDeviation="24" flood-color="#7046A4" flood-opacity="0.2"/>
    </filter>
  </defs>
  <rect width="1024" height="1024" rx="230" fill="url(#bgB)"/>
  <circle cx="200" cy="168" r="330" fill="url(#glowB)"/>
  <g filter="url(#shadowB)">
    <path d="M220 354 C220 244 310 170 420 170 H610 C730 170 816 258 816 366 V564 C816 682 730 770 610 770 H498 L382 850 L406 770 H420 C308 770 220 678 220 566 Z" fill="#FFFFFF"/>
    <rect x="334" y="300" width="276" height="32" rx="16" fill="#E5E9FF"/>
    <rect x="334" y="368" width="212" height="32" rx="16" fill="#E5E9FF"/>
    <circle cx="412" cy="510" r="24" fill="#37426B"/>
    <circle cx="604" cy="510" r="24" fill="#37426B"/>
    <ellipse cx="412" cy="550" rx="18" ry="11" fill="#FFB8C8"/>
    <ellipse cx="604" cy="550" rx="18" ry="11" fill="#FFB8C8"/>
    <path d="M434 606 Q508 660 582 606" fill="none" stroke="#37426B" stroke-width="24" stroke-linecap="round"/>
    <rect x="334" y="662" width="124" height="58" rx="29" fill="#F4F6FF"/>
    <rect x="478" y="662" width="164" height="58" rx="29" fill="#F4F6FF"/>
  </g>
  <g transform="translate(716 220)">
    <circle cx="88" cy="88" r="74" fill="#FF8A65"/>
    <path d="M88 46 A42 42 0 0 1 130 88 C130 118 114 136 100 150 L100 164 H76 V150 C62 136 46 118 46 88 A42 42 0 0 1 88 46 Z" fill="#FFFFFF"/>
    <rect x="66" y="168" width="44" height="18" rx="9" fill="#FFFFFF"/>
  </g>
  <g fill="#FFFFFF" opacity="0.92">
    <circle cx="238" cy="758" r="16"/>
    <circle cx="812" cy="760" r="14"/>
    <circle cx="772" cy="808" r="10"/>
  </g>
</svg>
