<svg xmlns="http://www.w3.org/2000/svg" width="1024" height="1024" viewBox="0 0 1024 1024">
  <defs>
    <linearGradient id="bgB" x1="0" y1="0" x2="1" y2="1">
      <stop offset="0%" stop-color="#FB923C"/>
      <stop offset="100%" stop-color="#EF4444"/>
    </linearGradient>
    <radialGradient id="glowB" cx="0.2" cy="0.14" r="0.6">
      <stop offset="0%" stop-color="#FFF7ED" stop-opacity="0.45"/>
      <stop offset="100%" stop-color="#FFF7ED" stop-opacity="0"/>
    </radialGradient>
    <filter id="shadowB" x="-20%" y="-20%" width="140%" height="140%">
      <feDropShadow dx="0" dy="24" stdDeviation="26" flood-color="#7F1D1D" flood-opacity="0.22"/>
    </filter>
  </defs>
  <rect width="1024" height="1024" rx="232" fill="url(#bgB)"/>
  <circle cx="210" cy="170" r="320" fill="url(#glowB)"/>
  <g filter="url(#shadowB)">
    <rect x="244" y="250" width="240" height="420" rx="82" fill="#FFFFFF" opacity="0.18"/>
    <path d="M324 420 L630 298 C676 280 716 312 716 356 L716 668 C716 712 676 744 630 726 L324 604 Z" fill="#FFFFFF"/>
    <path d="M314 448 L438 418 L438 610 L314 582 Z" fill="#FFE2D3"/>
    <rect x="314" y="460" width="70" height="210" rx="26" transform="rotate(-18 314 460)" fill="#FFFFFF"/>
    <rect x="360" y="628" width="128" height="82" rx="34" transform="rotate(-18 360 628)" fill="#FFD2BF"/>
  </g>
  <g fill="none" stroke="#FFFFFF" stroke-linecap="round" stroke-width="42">
    <path d="M730 406 Q818 512 730 618"/>
    <path d="M810 330 Q948 512 810 694" opacity="0.92"/>
  </g>
  <circle cx="274" cy="280" r="24" fill="#FFFFFF" opacity="0.85"/>
  <circle cx="780" cy="238" r="18" fill="#FFF7ED" opacity="0.9"/>
</svg>
