<svg xmlns="http://www.w3.org/2000/svg" width="1024" height="1024" viewBox="0 0 1024 1024">
  <defs>
    <linearGradient id="bgC" x1="0" y1="0" x2="1" y2="1">
      <stop offset="0%" stop-color="#FFD57A"/>
      <stop offset="100%" stop-color="#FF8E8E"/>
    </linearGradient>
    <radialGradient id="glowC" cx="0.22" cy="0.14" r="0.72">
      <stop offset="0%" stop-color="#FFF7E6" stop-opacity="0.52"/>
      <stop offset="100%" stop-color="#FFF7E6" stop-opacity="0"/>
    </radialGradient>
    <filter id="shadowC" x="-20%" y="-20%" width="140%" height="140%">
      <feDropShadow dx="0" dy="22" stdDeviation="24" flood-color="#AF4E5E" flood-opacity="0.2"/>
    </filter>
  </defs>
  <rect width="1024" height="1024" rx="230" fill="url(#bgC)"/>
  <circle cx="216" cy="170" r="334" fill="url(#glowC)"/>
  <g filter="url(#shadowC)">
    <rect x="248" y="232" width="528" height="560" rx="156" fill="#FFFFFF"/>
    <path d="M350 286 H674 A64 64 0 0 1 738 350 V438 C738 474 708 504 672 504 H350 A64 64 0 0 1 286 440 V350 A64 64 0 0 1 350 286 Z" fill="#FFF0D9"/>
    <path d="M360 332 L512 446 L664 332" fill="none" stroke="#FFB15D" stroke-width="24" stroke-linecap="round" stroke-linejoin="round"/>
    <circle cx="418" cy="586" r="24" fill="#6A4254"/>
    <circle cx="606" cy="586" r="24" fill="#6A4254"/>
    <ellipse cx="418" cy="626" rx="18" ry="11" fill="#FFB3C7"/>
    <ellipse cx="606" cy="626" rx="18" ry="11" fill="#FFB3C7"/>
    <path d="M438 680 Q512 734 586 680" fill="none" stroke="#6A4254" stroke-width="24" stroke-linecap="round"/>
  </g>
  <g transform="translate(704 238)">
    <circle cx="82" cy="82" r="64" fill="#FF7F8A"/>
    <circle cx="82" cy="82" r="22" fill="#FFFFFF"/>
    <path d="M82 34 V58" stroke="#FFFFFF" stroke-width="18" stroke-linecap="round"/>
  </g>
  <g fill="#FFFFFF" opacity="0.9">
    <path d="M246 708 l16 -38 l16 38 l38 16 l-38 16 l-16 38 l-16 -38 l-38 -16 z"/>
    <circle cx="794" cy="754" r="14"/>
  </g>
</svg>
