<svg xmlns="http://www.w3.org/2000/svg" width="1024" height="1024" viewBox="0 0 1024 1024">
  <defs>
    <linearGradient id="bgC" x1="0" y1="0" x2="1" y2="1">
      <stop offset="0%" stop-color="#FFD099"/>
      <stop offset="100%" stop-color="#FF87A8"/>
    </linearGradient>
    <radialGradient id="lightC" cx="0.18" cy="0.14" r="0.72">
      <stop offset="0%" stop-color="#FFFFFF" stop-opacity="0.44"/>
      <stop offset="100%" stop-color="#FFFFFF" stop-opacity="0"/>
    </radialGradient>
    <filter id="shadowC" x="-20%" y="-20%" width="140%" height="140%">
      <feDropShadow dx="0" dy="26" stdDeviation="26" flood-color="#B84E76" flood-opacity="0.18"/>
    </filter>
  </defs>
  <rect width="1024" height="1024" rx="230" fill="url(#bgC)"/>
  <circle cx="210" cy="166" r="336" fill="url(#lightC)"/>
  <g filter="url(#shadowC)">
    <path d="M230 368 C230 244 330 164 454 164 H590 C726 164 822 266 822 394 V544 C822 678 716 776 586 776 H492 L382 856 L406 776 H454 C330 776 230 694 230 572 Z" fill="#FFFFFF"/>
    <rect x="346" y="304" width="258" height="60" rx="30" fill="#FFF2EA"/>
    <rect x="346" y="412" width="336" height="36" rx="18" fill="#FFE4EE"/>
    <rect x="346" y="484" width="286" height="36" rx="18" fill="#FFE4EE"/>
    <rect x="346" y="556" width="314" height="36" rx="18" fill="#FFE4EE"/>
    <rect x="346" y="654" width="118" height="70" rx="35" fill="#FFF2EA"/>
    <rect x="482" y="654" width="168" height="70" rx="35" fill="#FFF2EA"/>
  </g>
  <g>
    <circle cx="760" cy="292" r="54" fill="#FFB44F"/>
    <path d="M760 258 V288" stroke="#FFFFFF" stroke-width="18" stroke-linecap="round"/>
    <circle cx="760" cy="320" r="10" fill="#FFFFFF"/>
  </g>
  <g fill="#FFFFFF" opacity="0.95">
    <path d="M194 744 l18 -42 l18 42 l42 18 l-42 18 l-18 42 l-18 -42 l-42 -18 z"/>
    <circle cx="808" cy="742" r="14"/>
  </g>
</svg>
