<svg xmlns="http://www.w3.org/2000/svg" width="1024" height="1024" viewBox="0 0 1024 1024">
  <defs>
    <linearGradient id="bgC" x1="0" y1="0" x2="1" y2="1">
      <stop offset="0%" stop-color="#14B8A6"/>
      <stop offset="100%" stop-color="#0F766E"/>
    </linearGradient>
    <radialGradient id="glowC" cx="0.23" cy="0.18" r="0.62">
      <stop offset="0%" stop-color="#CCFBF1" stop-opacity="0.34"/>
      <stop offset="100%" stop-color="#CCFBF1" stop-opacity="0"/>
    </radialGradient>
    <filter id="shadowC" x="-20%" y="-20%" width="140%" height="140%">
      <feDropShadow dx="0" dy="24" stdDeviation="26" flood-color="#115E59" flood-opacity="0.22"/>
    </filter>
  </defs>
  <rect width="1024" height="1024" rx="232" fill="url(#bgC)"/>
  <circle cx="238" cy="186" r="314" fill="url(#glowC)"/>
  <g filter="url(#shadowC)">
    <rect x="286" y="230" width="452" height="566" rx="114" fill="#FFFFFF"/>
    <rect x="360" y="262" width="304" height="86" rx="43" fill="#D1FAE5"/>
    <circle cx="512" cy="246" r="34" fill="#F59E0B"/>
    <rect x="376" y="404" width="272" height="32" rx="16" fill="#D5F4EF"/>
    <rect x="376" y="474" width="220" height="32" rx="16" fill="#D5F4EF"/>
    <rect x="376" y="544" width="240" height="32" rx="16" fill="#D5F4EF"/>
    <g transform="translate(454 618)">
      <path d="M58 0 C102 0 138 34 138 84 V118 C138 144 150 166 170 182 H0 C20 166 32 144 32 118 V84 C32 34 68 0 112 0 Z" fill="#10B981"/>
      <rect x="72" y="184" width="78" height="28" rx="14" fill="#10B981"/>
      <circle cx="154" cy="24" r="18" fill="#F59E0B"/>
    </g>
  </g>
</svg>
